<svg xmlns="http://www.w3.org/2000/svg" viewBox="0 0 130 130" width="130" height="130"
  style="width: 100%; height: 100%; transform: translate3d(0px, 0px, 0px); content-visibility: visible;"
  preserveAspectRatio="xMidYMid meet">
  <defs>
    <clipPath id="__lottie_element_50">
      <rect width="130" height="130" x="0" y="0"></rect>
    </clipPath>
  </defs>
  <g clip-path="url(#__lottie_element_50)">
    <g style="display: block;" transform="matrix(1,0,0,1,0.000995635986328125,0.000003814697265625)"
      opacity="1">
      <g opacity="1" transform="matrix(1,0,0,1,0,0)">
        <g opacity="1" transform="matrix(1,0,0,1,28.076000213623047,7.877998352050781)">
          <g opacity="1" transform="matrix(1,0,0,1,35.92499923706055,56.20600128173828)">
            <path fill="rgb(243,238,245)" fill-opacity="1"
              d=" M-35.67499923706055,-0.21400000154972076 C-35.67499923706055,-0.21400000154972076 -31.833999633789062,-45.54199981689453 -31.833999633789062,-45.54199981689453 C-31.833999633789062,-45.54199981689453 -25.222999572753906,-53.18899917602539 -25.222999572753906,-53.18899917602539 C-25.222999572753906,-53.18899917602539 -17.2810001373291,-55.81999969482422 -17.2810001373291,-55.81999969482422 C-17.2810001373291,-55.81999969482422 -3.563999891281128,-55.95600128173828 -3.563999891281128,-55.95600128173828 C-3.563999891281128,-55.95600128173828 15.225000381469727,-55.42599868774414 15.225000381469727,-55.42599868774414 C15.225000381469727,-55.42599868774414 28.527000427246094,-50.97999954223633 28.527000427246094,-50.97999954223633 C28.527000427246094,-50.97999954223633 34.369998931884766,-31.19300079345703 34.369998931884766,-31.19300079345703 C34.369998931884766,-31.19300079345703 35.67499923706055,-6.618000030517578 35.67499923706055,-6.618000030517578 C35.67499923706055,-6.618000030517578 35.67499923706055,36.26599884033203 35.67499923706055,36.26599884033203 C35.67499923706055,36.26599884033203 29.000999450683594,55.95600128173828 29.000999450683594,55.95600128173828 C29.000999450683594,55.95600128173828 -9.951000213623047,48.683998107910156 -9.951000213623047,48.683998107910156 C-9.951000213623047,48.683998107910156 -30.43899917602539,50.51599884033203 -30.43899917602539,50.51599884033203 C-30.43899917602539,50.51599884033203 -35.67499923706055,33.915000915527344 -35.67499923706055,33.915000915527344 C-35.67499923706055,33.915000915527344 -35.67499923706055,-0.21400000154972076 -35.67499923706055,-0.21400000154972076z"></path>
          </g>
        </g>
        <g opacity="1" transform="matrix(1,0,0,1,27.02499771118164,50.461997985839844)">
          <g opacity="1" transform="matrix(1,0,0,1,62.03499984741211,38.33399963378906)">
            <path fill="rgb(171,144,184)" fill-opacity="1"
              d=" M-3.755000114440918,-10.456999778747559 C-3.755000114440918,-10.456999778747559 8.781000137329102,-14.125 8.781000137329102,-14.125 C8.781000137329102,-14.125 7.797999858856201,14.125 7.797999858856201,14.125 C7.797999858856201,14.125 -3.0309998989105225,9.201000213623047 -3.0309998989105225,9.201000213623047 C-3.0309998989105225,9.201000213623047 -8.781000137329102,4.501999855041504 -8.781000137329102,4.501999855041504 C-8.781000137329102,4.501999855041504 -3.755000114440918,-10.456999778747559 -3.755000114440918,-10.456999778747559z"></path>
          </g>
          <g opacity="1" transform="matrix(1,0,0,1,47.27299880981445,29.55299949645996)">
            <path fill="rgb(183,159,194)" fill-opacity="1"
              d=" M-13.704000473022461,2.1670000553131104 C-13.704000473022461,2.1670000553131104 -17.59600067138672,9.406999588012695 -17.59600067138672,9.406999588012695 C-17.59600067138672,9.406999588012695 13.842000007629395,7.864999771118164 13.842000007629395,7.864999771118164 C13.842000007629395,7.864999771118164 17.59600067138672,-0.6259999871253967 17.59600067138672,-0.6259999871253967 C17.59600067138672,-0.6259999871253967 13.842000007629395,-4.939000129699707 13.842000007629395,-4.939000129699707 C13.842000007629395,-4.939000129699707 9.234000205993652,-5.9629998207092285 9.234000205993652,-5.9629998207092285 C9.234000205993652,-5.9629998207092285 3.927999973297119,-9.406999588012695 3.927999973297119,-9.406999588012695 C3.927999973297119,-9.406999588012695 -13.704000473022461,2.1670000553131104 -13.704000473022461,2.1670000553131104z"></path>
          </g>
          <g opacity="1" transform="matrix(1,0,0,1,44.71099853515625,32.750999450683594)">
            <path fill="rgb(171,144,184)" fill-opacity="1"
              d=" M-11.140999794006348,-1.031000018119812 C-11.140999794006348,-1.031000018119812 -11.369999885559082,10.506999969482422 -11.369999885559082,10.506999969482422 C-11.369999885559082,10.506999969482422 7.489999771118164,1.3930000066757202 7.489999771118164,1.3930000066757202 C7.489999771118164,1.3930000066757202 11.369999885559082,-8.119999885559082 11.369999885559082,-8.119999885559082 C11.369999885559082,-8.119999885559082 6.489999771118164,-10.506999969482422 6.489999771118164,-10.506999969482422 C6.489999771118164,-10.506999969482422 -11.140999794006348,-1.031000018119812 -11.140999794006348,-1.031000018119812z"></path>
          </g>
          <g opacity="1" transform="matrix(1,0,0,1,8.3100004196167,27.277000427246094)">
            <path fill="rgb(207,190,213)" fill-opacity="1"
              d=" M-7.007999897003174,-5.5960001945495605 C-7.007999897003174,-5.5960001945495605 1.534999966621399,-8.468000411987305 1.534999966621399,-8.468000411987305 C1.534999966621399,-8.468000411987305 7.007999897003174,-5.5960001945495605 7.007999897003174,-5.5960001945495605 C7.007999897003174,-5.5960001945495605 7.007999897003174,-2.2279999256134033 7.007999897003174,-2.2279999256134033 C7.007999897003174,-2.2279999256134033 3.3959999084472656,3.3970000743865967 3.3959999084472656,3.3970000743865967 C3.3959999084472656,3.3970000743865967 -6.065999984741211,8.468000411987305 -6.065999984741211,8.468000411987305 C-6.065999984741211,8.468000411987305 -7.007999897003174,-5.5960001945495605 -7.007999897003174,-5.5960001945495605z"></path>
          </g>
          <g opacity="1" transform="matrix(1,0,0,1,10.005000114440918,45.78499984741211)">
            <path fill="rgb(183,159,194)" fill-opacity="1"
              d=" M0.5709999799728394,-16.98200035095215 C0.5709999799728394,-16.98200035095215 -8.074000358581543,-12.105999946594238 -8.074000358581543,-12.105999946594238 C-8.074000358581543,-12.105999946594238 -3.4679999351501465,18.351999282836914 -3.4679999351501465,18.351999282836914 C-3.4679999351501465,18.351999282836914 8.074000358581543,-3.9519999027252197 8.074000358581543,-3.9519999027252197 C8.074000358581543,-3.9519999027252197 7.242000102996826,-8.371999740600586 7.242000102996826,-8.371999740600586 C7.242000102996826,-8.371999740600586 8.074000358581543,-18.351999282836914 8.074000358581543,-18.351999282836914 C8.074000358581543,-18.351999282836914 0.5709999799728394,-16.98200035095215 0.5709999799728394,-16.98200035095215z"></path>
          </g>
          <g opacity="1" transform="matrix(1,0,0,1,36.387001037597656,24.51099967956543)">
            <path fill="rgb(207,190,213)" fill-opacity="1"
              d=" M-9.361000061035156,-9.034000396728516 C-9.361000061035156,-9.034000396728516 4.046000003814697,-4.994999885559082 4.046000003814697,-4.994999885559082 C4.046000003814697,-4.994999885559082 14.814000129699707,-2.765000104904175 14.814000129699707,-2.765000104904175 C14.814000129699707,-2.765000104904175 -1.6690000295639038,9.034000396728516 -1.6690000295639038,9.034000396728516 C-1.6690000295639038,9.034000396728516 -14.814000129699707,-4.994999885559082 -14.814000129699707,-4.994999885559082 C-14.814000129699707,-4.994999885559082 -9.361000061035156,-9.034000396728516 -9.361000061035156,-9.034000396728516z"></path>
          </g>
          <g opacity="1" transform="matrix(1,0,0,1,24.48699951171875,30.673999786376953)">
            <path fill="rgb(171,144,184)" fill-opacity="1"
              d=" M-10.232000350952148,-0.8080000281333923 C-10.232000350952148,-0.8080000281333923 -7.239999771118164,6.738999843597412 -7.239999771118164,6.738999843597412 C-7.239999771118164,6.738999843597412 3.4179999828338623,10.781000137329102 3.4179999828338623,10.781000137329102 C3.4179999828338623,10.781000137329102 7.4079999923706055,11.159000396728516 7.4079999923706055,11.159000396728516 C7.4079999923706055,11.159000396728516 10.232000350952148,2.871000051498413 10.232000350952148,2.871000051498413 C10.232000350952148,2.871000051498413 5.775000095367432,-4.205999851226807 5.775000095367432,-4.205999851226807 C5.775000095367432,-4.205999851226807 -2.9130001068115234,-11.159000396728516 -2.9130001068115234,-11.159000396728516 C-2.9130001068115234,-11.159000396728516 -10.232000350952148,-0.8080000281333923 -10.232000350952148,-0.8080000281333923z"></path>
          </g>
          <g opacity="1" transform="matrix(1,0,0,1,8.093000411987305,9.883000373840332)">
            <path fill="rgb(255,255,255)" fill-opacity="1"
              d=" M-6.160999774932861,9.633000373840332 C-6.160999774932861,9.633000373840332 4.833000183105469,-9.633000373840332 4.833000183105469,-9.633000373840332 C4.833000183105469,-9.633000373840332 6.160999774932861,4.2769999504089355 6.160999774932861,4.2769999504089355 C6.160999774932861,4.2769999504089355 -6.160999774932861,9.633000373840332 -6.160999774932861,9.633000373840332z"></path>
          </g>
          <g opacity="1" transform="matrix(1,0,0,1,19.606000900268555,8.277000427246094)">
            <path fill="rgb(231,223,234)" fill-opacity="1"
              d=" M-6.679999828338623,-8.027000427246094 C-6.679999828338623,-8.027000427246094 7.419000148773193,7.199999809265137 7.419000148773193,7.199999809265137 C7.419000148773193,7.199999809265137 -2.3589999675750732,8.027000427246094 -2.3589999675750732,8.027000427246094 C-2.3589999675750732,8.027000427246094 -7.419000148773193,5.3480000495910645 -7.419000148773193,5.3480000495910645 C-7.419000148773193,5.3480000495910645 -6.679999828338623,-8.027000427246094 -6.679999828338623,-8.027000427246094z"></path>
          </g>
          <g opacity="1" transform="matrix(1,0,0,1,7.059000015258789,17.652999877929688)">
            <path fill="rgb(243,238,245)" fill-opacity="1"
              d=" M5.127999782562256,-4.0279998779296875 C5.127999782562256,-4.0279998779296875 4.646999835968018,1.8619999885559082 4.646999835968018,1.8619999885559082 C4.646999835968018,1.8619999885559082 1.9509999752044678,3.006999969482422 1.9509999752044678,3.006999969482422 C1.9509999752044678,3.006999969482422 -1.4450000524520874,4.0279998779296875 -1.4450000524520874,4.0279998779296875 C-1.4450000524520874,4.0279998779296875 -5.127999782562256,1.8619999885559082 -5.127999782562256,1.8619999885559082 C-5.127999782562256,1.8619999885559082 5.127999782562256,-4.0279998779296875 5.127999782562256,-4.0279998779296875z"></path>
          </g>
          <g opacity="1" transform="matrix(1,0,0,1,18.801000595092773,21.7450008392334)">
            <path fill="rgb(243,238,245)" fill-opacity="1"
              d=" M-6.614999771118164,-8.119999885559082 C-6.614999771118164,-8.119999885559082 -7.093999862670898,-2.2300000190734863 -7.093999862670898,-2.2300000190734863 C-7.093999862670898,-2.2300000190734863 -3.4820001125335693,-0.06400000303983688 -3.4820001125335693,-0.06400000303983688 C-3.4820001125335693,-0.06400000303983688 -8.225000381469727,7.057000160217285 -8.225000381469727,7.057000160217285 C-8.225000381469727,7.057000160217285 -4.546999931335449,8.119999885559082 -4.546999931335449,8.119999885559082 C-4.546999931335449,8.119999885559082 -0.0010000000474974513,0.6470000147819519 -0.0010000000474974513,0.6470000147819519 C-0.0010000000474974513,0.6470000147819519 8.225000381469727,-6.269000053405762 8.225000381469727,-6.269000053405762 C8.225000381469727,-6.269000053405762 -6.614999771118164,-8.119999885559082 -6.614999771118164,-8.119999885559082z"></path>
          </g>
          <g opacity="1" transform="matrix(1,0,0,1,12.163999557495117,17.652999877929688)">
            <path fill="rgb(255,255,255)" fill-opacity="1"
              d=" M0.023000000044703484,-4.0279998779296875 C0.023000000044703484,-4.0279998779296875 -3.1540000438690186,3.006999969482422 -3.1540000438690186,3.006999969482422 C-3.1540000438690186,3.006999969482422 3.1540000438690186,4.0279998779296875 3.1540000438690186,4.0279998779296875 C3.1540000438690186,4.0279998779296875 0.023000000044703484,-4.0279998779296875 0.023000000044703484,-4.0279998779296875z"></path>
          </g>
          <g opacity="1" transform="matrix(1,0,0,1,20.641000747680664,22.67099952697754)">
            <path fill="rgb(231,223,234)" fill-opacity="1"
              d=" M-5.322000026702881,-0.9900000095367432 C-5.322000026702881,-0.9900000095367432 6.385000228881836,-7.195000171661377 6.385000228881836,-7.195000171661377 C6.385000228881836,-7.195000171661377 -6.385000228881836,7.195000171661377 -6.385000228881836,7.195000171661377 C-6.385000228881836,7.195000171661377 -5.322000026702881,-0.9900000095367432 -5.322000026702881,-0.9900000095367432z"></path>
          </g>
          <g opacity="1" transform="matrix(1,0,0,1,7.252999782562256,54.81700134277344)">
            <path fill="rgb(171,144,184)" fill-opacity="1"
              d=" M7.002999782562256,-9.319999694824219 C7.002999782562256,-9.319999694824219 -7.002999782562256,-5.451000213623047 -7.002999782562256,-5.451000213623047 C-7.002999782562256,-5.451000213623047 -0.7149999737739563,9.319999694824219 -0.7149999737739563,9.319999694824219 C-0.7149999737739563,9.319999694824219 5.672999858856201,-0.6880000233650208 5.672999858856201,-0.6880000233650208 C5.672999858856201,-0.6880000233650208 7.002999782562256,-9.319999694824219 7.002999782562256,-9.319999694824219z"></path>
          </g>
          <g opacity="1" transform="matrix(1,0,0,1,60.83300018310547,15.817000389099121)">
            <path fill="rgb(231,223,234)" fill-opacity="1"
              d=" M-0.23899999260902405,-8.814000129699707 C-0.23899999260902405,-8.814000129699707 5.7789998054504395,0.4880000054836273 5.7789998054504395,0.4880000054836273 C5.7789998054504395,0.4880000054836273 1.2009999752044678,4.328999996185303 1.2009999752044678,4.328999996185303 C1.2009999752044678,4.328999996185303 -4.751999855041504,8.814000129699707 -4.751999855041504,8.814000129699707 C-4.751999855041504,8.814000129699707 -5.7789998054504395,-1.11899995803833 -5.7789998054504395,-1.11899995803833 C-5.7789998054504395,-1.11899995803833 -0.23899999260902405,-8.814000129699707 -0.23899999260902405,-8.814000129699707z"></path>
          </g>
          <g opacity="1" transform="matrix(1,0,0,1,51.9630012512207,15.817000389099121)">
            <path fill="rgb(255,255,255)" fill-opacity="1"
              d=" M8.631999969482422,-8.814000129699707 C8.631999969482422,-8.814000129699707 4.118000030517578,8.814000129699707 4.118000030517578,8.814000129699707 C4.118000030517578,8.814000129699707 -0.746999979019165,6.395999908447266 -0.746999979019165,6.395999908447266 C-0.746999979019165,6.395999908447266 -8.631999969482422,2.4769999980926514 -8.631999969482422,2.4769999980926514 C-8.631999969482422,2.4769999980926514 8.631999969482422,-8.814000129699707 8.631999969482422,-8.814000129699707z"></path>
          </g>
          <g opacity="1" transform="matrix(1,0,0,1,61.34700012207031,20.468000411987305)">
            <path fill="rgb(243,238,245)" fill-opacity="1"
              d=" M5.264999866485596,-4.163000106811523 C5.264999866485596,-4.163000106811523 4.1570000648498535,2.3929998874664307 4.1570000648498535,2.3929998874664307 C4.1570000648498535,2.3929998874664307 -5.264999866485596,4.163000106811523 -5.264999866485596,4.163000106811523 C-5.264999866485596,4.163000106811523 5.264999866485596,-4.163000106811523 5.264999866485596,-4.163000106811523z"></path>
          </g>
          <g opacity="1" transform="matrix(1,0,0,1,68.41899871826172,18.80900001525879)">
            <path fill="rgb(231,223,234)" fill-opacity="1"
              d=" M-3.549999952316284,3.4660000801086426 C-3.549999952316284,3.4660000801086426 -1.8070000410079956,-2.505000114440918 -1.8070000410079956,-2.505000114440918 C-1.8070000410079956,-2.505000114440918 3.549999952316284,-5.401000022888184 3.549999952316284,-5.401000022888184 C3.549999952316284,-5.401000022888184 3.549999952316284,0.9070000052452087 3.549999952316284,0.9070000052452087 C3.549999952316284,0.9070000052452087 2.3970000743865967,5.401000022888184 2.3970000743865967,5.401000022888184 C2.3970000743865967,5.401000022888184 -2.9149999618530273,5.401000022888184 -2.9149999618530273,5.401000022888184 C-2.9149999618530273,5.401000022888184 -3.549999952316284,3.4660000801086426 -3.549999952316284,3.4660000801086426z"></path>
          </g>
          <g opacity="1" transform="matrix(1,0,0,1,63.44900131225586,25.60099983215332)">
            <path fill="rgb(255,255,255)" fill-opacity="1"
              d=" M-7.367000102996826,-0.9700000286102295 C-7.367000102996826,-0.9700000286102295 1.4199999570846558,3.3259999752044678 1.4199999570846558,3.3259999752044678 C1.4199999570846558,3.3259999752044678 7.367000102996826,-1.3919999599456787 7.367000102996826,-1.3919999599456787 C7.367000102996826,-1.3919999599456787 1.4199999570846558,-3.3259999752044678 1.4199999570846558,-3.3259999752044678 C1.4199999570846558,-3.3259999752044678 -7.367000102996826,-0.9700000286102295 -7.367000102996826,-0.9700000286102295z"></path>
          </g>
          <g opacity="1" transform="matrix(1,0,0,1,5.46999979019165,24.22100067138672)">
            <path fill="rgb(183,159,194)" fill-opacity="1"
              d=" M3.5390000343322754,-3.561000108718872 C3.5390000343322754,-3.561000108718872 -3.5390000343322754,4.705999851226807 -3.5390000343322754,4.705999851226807 C-3.5390000343322754,4.705999851226807 -3.5390000343322754,-4.705999851226807 -3.5390000343322754,-4.705999851226807 C-3.5390000343322754,-4.705999851226807 3.5390000343322754,-3.561000108718872 3.5390000343322754,-3.561000108718872z"></path>
          </g>
        </g>
        <g opacity="1" transform="matrix(1,0,0,1,29.861000061035156,84.35600280761719)">
          <g opacity="1" transform="matrix(1,0,0,1,10.295000076293945,26.058000564575195)">
            <path fill="rgb(108,77,122)" fill-opacity="1"
              d=" M-7.51800012588501,-4.763999938964844 C-7.51800012588501,-4.763999938964844 -10.045999526977539,-0.8330000042915344 -10.045999526977539,-0.8330000042915344 C-10.045999526977539,-0.8330000042915344 -6.593999862670898,4.185999870300293 -6.593999862670898,4.185999870300293 C-6.593999862670898,4.185999870300293 0.0010000000474974513,6.452000141143799 0.0010000000474974513,6.452000141143799 C0.0010000000474974513,6.452000141143799 4.947000026702881,5.242000102996826 4.947000026702881,5.242000102996826 C4.947000026702881,5.242000102996826 10.045999526977539,-6.452000141143799 10.045999526977539,-6.452000141143799 C10.045999526977539,-6.452000141143799 -7.51800012588501,-4.763999938964844 -7.51800012588501,-4.763999938964844z"></path>
          </g>
          <g opacity="1" transform="matrix(1,0,0,1,23.573999404907227,28.437000274658203)">
            <path fill="rgb(147,112,163)" fill-opacity="1"
              d=" M-6.349999904632568,-6.583000183105469 C-6.349999904632568,-6.583000183105469 8.331000328063965,-4.189000129699707 8.331000328063965,-4.189000129699707 C8.331000328063965,-4.189000129699707 4.888999938964844,4.072000026702881 4.888999938964844,4.072000026702881 C4.888999938964844,4.072000026702881 -3.2320001125335693,6.583000183105469 -3.2320001125335693,6.583000183105469 C-3.2320001125335693,6.583000183105469 -8.331000328063965,2.86299991607666 -8.331000328063965,2.86299991607666 C-8.331000328063965,2.86299991607666 -6.349999904632568,-6.583000183105469 -6.349999904632568,-6.583000183105469z"></path>
          </g>
          <g opacity="1" transform="matrix(1,0,0,1,36.64899826049805,28.488000869750977)">
            <path fill="rgb(108,77,122)" fill-opacity="1"
              d=" M-7.590000152587891,-1.2259999513626099 C-7.590000152587891,-1.2259999513626099 8.187000274658203,-7.195000171661377 8.187000274658203,-7.195000171661377 C8.187000274658203,-7.195000171661377 7.992000102996826,5.502999782562256 7.992000102996826,5.502999782562256 C7.992000102996826,5.502999782562256 0.7120000123977661,7.195000171661377 0.7120000123977661,7.195000171661377 C0.7120000123977661,7.195000171661377 -8.185999870300293,4.021999835968018 -8.185999870300293,4.021999835968018"></path>
          </g>
          <g opacity="1" transform="matrix(1,0,0,1,49.3650016784668,28.488000869750977)">
            <path fill="rgb(121,86,137)" fill-opacity="1"
              d=" M-7.373000144958496,-4.239999771118164 C-7.373000144958496,-4.239999771118164 7.373000144958496,-7.195000171661377 7.373000144958496,-7.195000171661377 C7.373000144958496,-7.195000171661377 6.52400016784668,6.531000137329102 6.52400016784668,6.531000137329102 C6.52400016784668,6.531000137329102 0,7.195000171661377 0,7.195000171661377 C0,7.195000171661377 -4.72599983215332,5.501999855041504 -4.72599983215332,5.501999855041504 C-4.72599983215332,5.501999855041504 -7.373000144958496,-4.239999771118164 -7.373000144958496,-4.239999771118164z"></path>
          </g>
          <g opacity="1" transform="matrix(1,0,0,1,60.4630012512207,25.336999893188477)">
            <path fill="rgb(108,77,122)" fill-opacity="1"
              d=" M4.9019999504089355,-10.51200008392334 C4.9019999504089355,-10.51200008392334 8.668999671936035,-1.878000020980835 8.668999671936035,-1.878000020980835 C8.668999671936035,-1.878000020980835 2.677000045776367,10.345999717712402 2.677000045776367,10.345999717712402 C2.677000045776367,10.345999717712402 -2.2939999103546143,10.51200008392334 -2.2939999103546143,10.51200008392334 C-2.2939999103546143,10.51200008392334 -4.573999881744385,9.682999610900879 -4.573999881744385,9.682999610900879 C-4.573999881744385,9.682999610900879 -8.668999671936035,-0.11299999803304672 -8.668999671936035,-0.11299999803304672 C-8.668999671936035,-0.11299999803304672 -6.375999927520752,-5.73199987411499 -6.375999927520752,-5.73199987411499 C-6.375999927520752,-5.73199987411499 4.9019999504089355,-10.51200008392334 4.9019999504089355,-10.51200008392334z"></path>
          </g>
          <g opacity="1" transform="matrix(1,0,0,1,53.57899856567383,18.56599998474121)">
            <path fill="rgb(179,135,157)" fill-opacity="1"
              d=" M-11.78600025177002,-1.2319999933242798 C-11.78600025177002,-1.2319999933242798 -1.784999966621399,-4.583000183105469 -1.784999966621399,-4.583000183105469 C-1.784999966621399,-4.583000183105469 7.656000137329102,-6.658999919891357 7.656000137329102,-6.658999919891357 C7.656000137329102,-6.658999919891357 11.78600025177002,-3.742000102996826 11.78600025177002,-3.742000102996826 C11.78600025177002,-3.742000102996826 -1.784999966621399,6.6579999923706055 -1.784999966621399,6.6579999923706055 C-1.784999966621399,6.6579999923706055 -11.586999893188477,5.682000160217285 -11.586999893188477,5.682000160217285 C-11.586999893188477,5.682000160217285 -11.78600025177002,-1.2319999933242798 -11.78600025177002,-1.2319999933242798z"></path>
          </g>
          <g opacity="1" transform="matrix(1,0,0,1,16.641000747680664,16.236000061035156)">
            <path fill="rgb(209,160,184)" fill-opacity="1"
              d=" M-5.2220001220703125,-4.632999897003174 C-5.2220001220703125,-4.632999897003174 -13.86400032043457,5.057000160217285 -13.86400032043457,5.057000160217285 C-13.86400032043457,5.057000160217285 0.5839999914169312,5.618000030517578 0.5839999914169312,5.618000030517578 C0.5839999914169312,5.618000030517578 9.840999603271484,3.9600000381469727 9.840999603271484,3.9600000381469727 C9.840999603271484,3.9600000381469727 13.86400032043457,1.0980000495910645 13.86400032043457,1.0980000495910645 C13.86400032043457,1.0980000495910645 2.740000009536743,-5.618000030517578 2.740000009536743,-5.618000030517578 C2.740000009536743,-5.618000030517578 -5.2220001220703125,-4.632999897003174 -5.2220001220703125,-4.632999897003174z"></path>
          </g>
          <g opacity="1" transform="matrix(1,0,0,1,29.607999801635742,22.29800033569336)">
            <path fill="rgb(179,135,157)" fill-opacity="1"
              d=" M0.8960000276565552,-4.964000225067139 C0.8960000276565552,-4.964000225067139 -12.383999824523926,-0.4429999887943268 -12.383999824523926,-0.4429999887943268 C-12.383999824523926,-0.4429999887943268 -0.550000011920929,4.964000225067139 -0.550000011920929,4.964000225067139 C-0.550000011920929,4.964000225067139 12.383999824523926,1.9500000476837158 12.383999824523926,1.9500000476837158 C12.383999824523926,1.9500000476837158 7.986999988555908,-2.693000078201294 7.986999988555908,-2.693000078201294 C7.986999988555908,-2.693000078201294 0.8960000276565552,-4.964000225067139 0.8960000276565552,-4.964000225067139z"></path>
          </g>
          <g opacity="1" transform="matrix(1,0,0,1,41.49800109863281,19.434999465942383)">
            <path fill="rgb(209,160,184)" fill-opacity="1"
              d=" M10.993000030517578,-3.061000108718872 C10.993000030517578,-3.061000108718872 0.49399998784065247,4.814000129699707 0.49399998784065247,4.814000129699707 C0.49399998784065247,4.814000129699707 -10.993000030517578,-2.0999999046325684 -10.993000030517578,-2.0999999046325684 C-10.993000030517578,-2.0999999046325684 0.2939999997615814,-4.814000129699707 0.2939999997615814,-4.814000129699707 C0.2939999997615814,-4.814000129699707 10.993000030517578,-3.061000108718872 10.993000030517578,-3.061000108718872z"></path>
          </g>
          <g opacity="1" transform="matrix(1,0,0,1,17.225000381469727,7.560999870300293)">
            <path fill="rgb(147,112,163)" fill-opacity="1"
              d=" M-2.813999891281128,-4.041999816894531 C-2.813999891281128,-4.041999816894531 -5.806000232696533,4.041999816894531 -5.806000232696533,4.041999816894531 C-5.806000232696533,4.041999816894531 1.906000018119812,4.041999816894531 1.906000018119812,4.041999816894531 C1.906000018119812,4.041999816894531 5.806000232696533,0.19499999284744263 5.806000232696533,0.19499999284744263 C5.806000232696533,0.19499999284744263 -2.813999891281128,-4.041999816894531 -2.813999891281128,-4.041999816894531z"></path>
          </g>
          <g opacity="1" transform="matrix(1,0,0,1,26.958999633789062,12.63700008392334)">
            <path fill="rgb(135,96,154)" fill-opacity="1"
              d=" M-6.896999835968018,-4.697999954223633 C-6.896999835968018,-4.697999954223633 -7.828999996185303,-1.034000039100647 -7.828999996185303,-1.034000039100647 C-7.828999996185303,-1.034000039100647 3.5460000038146973,4.697999954223633 3.5460000038146973,4.697999954223633 C3.5460000038146973,4.697999954223633 7.828999996185303,-2.687000036239624 7.828999996185303,-2.687000036239624 C7.828999996185303,-2.687000036239624 -6.896999835968018,-4.697999954223633 -6.896999835968018,-4.697999954223633z"></path>
          </g>
          <g opacity="1" transform="matrix(1,0,0,1,41.79199981689453,13.642000198364258)">
            <path fill="rgb(121,86,137)" fill-opacity="1"
              d=" M-10.402000427246094,-2.5739998817443848 C-10.402000427246094,-2.5739998817443848 11.286999702453613,-3.693000078201294 11.286999702453613,-3.693000078201294 C11.286999702453613,-3.693000078201294 10.699999809265137,2.7320001125335693 10.699999809265137,2.7320001125335693 C10.699999809265137,2.7320001125335693 -11.286999702453613,3.693000078201294 -11.286999702453613,3.693000078201294 C-11.286999702453613,3.693000078201294 -10.402000427246094,-2.5739998817443848 -10.402000427246094,-2.5739998817443848z"></path>
          </g>
          <g opacity="1" transform="matrix(1,0,0,1,56.16699981689453,9.949999809265137)">
            <path fill="rgb(108,77,122)" fill-opacity="1"
              d=" M2.11299991607666,-6.425000190734863 C2.11299991607666,-6.425000190734863 5.067999839782715,1.9579999446868896 5.067999839782715,1.9579999446868896 C5.067999839782715,1.9579999446868896 -3.6760001182556152,6.425000190734863 -3.6760001182556152,6.425000190734863 C-3.6760001182556152,6.425000190734863 -5.067999839782715,1.652999997138977 -5.067999839782715,1.652999997138977 C-5.067999839782715,1.652999997138977 -3.0880000591278076,-3.7690000534057617 -3.0880000591278076,-3.7690000534057617 C-3.0880000591278076,-3.7690000534057617 2.11299991607666,-6.425000190734863 2.11299991607666,-6.425000190734863z"></path>
          </g>
          <g opacity="1" transform="matrix(1,0,0,1,26.95400047302246,6.520999908447266)">
            <path fill="rgb(179,135,157)" fill-opacity="1"
              d=" M-12.543999671936035,-3.003000020980835 C-12.543999671936035,-3.003000020980835 -7.250999927520752,-3.3269999027252197 -7.250999927520752,-3.3269999027252197 C-7.250999927520752,-3.3269999027252197 -5.593999862670898,-3.6689999103546143 -5.593999862670898,-3.6689999103546143 C-5.593999862670898,-3.6689999103546143 -4.939000129699707,-3.4709999561309814 -4.939000129699707,-3.4709999561309814 C-4.939000129699707,-3.4709999561309814 12.543999671936035,-4.546000003814697 12.543999671936035,-4.546000003814697 C12.543999671936035,-4.546000003814697 11.720999717712402,2.1480000019073486 11.720999717712402,2.1480000019073486 C11.720999717712402,2.1480000019073486 4.435999870300293,4.546000003814697 4.435999870300293,4.546000003814697 C4.435999870300293,4.546000003814697 -6.89300012588501,1.4170000553131104 -6.89300012588501,1.4170000553131104 C-6.89300012588501,1.4170000553131104 -12.543999671936035,-3.003000020980835 -12.543999671936035,-3.003000020980835z"></path>
          </g>
          <g opacity="1" transform="matrix(1,0,0,1,44.834999084472656,5.927000045776367)">
            <path fill="rgb(209,160,184)" fill-opacity="1"
              d=" M-5.336999893188477,-3.9519999027252197 C-5.336999893188477,-3.9519999027252197 4.5289998054504395,-5.676000118255615 4.5289998054504395,-5.676000118255615 C4.5289998054504395,-5.676000118255615 13.444999694824219,-2.4019999504089355 13.444999694824219,-2.4019999504089355 C13.444999694824219,-2.4019999504089355 6.265999794006348,5.676000118255615 6.265999794006348,5.676000118255615 C6.265999794006348,5.676000118255615 -13.444999694824219,5.140999794006348 -13.444999694824219,5.140999794006348 C-13.444999694824219,5.140999794006348 -5.336999893188477,-3.9519999027252197 -5.336999893188477,-3.9519999027252197z"></path>
          </g>
        </g>
        <g opacity="1" transform="matrix(1,0,0,1,18.338001251220703,4.701999664306641)">
          <g opacity="1" transform="matrix(1,0,0,1,31.270000457763672,3.2209999561309814)">
            <path fill="rgb(204,207,211)" fill-opacity="1"
              d=" M-9.657999992370605,-2.9709999561309814 C-9.657999992370605,-2.9709999561309814 -10.829000473022461,2.9709999561309814 -10.829000473022461,2.9709999561309814 C-10.829000473022461,2.9709999561309814 10.829000473022461,0.20600000023841858 10.829000473022461,0.20600000023841858 C10.829000473022461,0.20600000023841858 -9.657999992370605,-2.9709999561309814 -9.657999992370605,-2.9709999561309814z"></path>
          </g>
          <g opacity="1" transform="matrix(1,0,0,1,7.736999988555908,84.53299713134766)">
            <path fill="rgb(204,207,211)" fill-opacity="1"
              d=" M-7.486999988555908,23.9950008392334 C-7.486999988555908,23.9950008392334 7.486999988555908,25.364999771118164 7.486999988555908,25.364999771118164 C7.486999988555908,25.364999771118164 2.250999927520752,-25.364999771118164 2.250999927520752,-25.364999771118164 C2.250999927520752,-25.364999771118164 -7.486999988555908,23.9950008392334 -7.486999988555908,23.9950008392334z"></path>
          </g>
          <g opacity="1" transform="matrix(1,0,0,1,80.03299713134766,30.58300018310547)">
            <path fill="rgb(204,207,211)" fill-opacity="1"
              d=" M5.843999862670898,-20.368000030517578 C5.843999862670898,-20.368000030517578 -5.843999862670898,-22.18000030517578 -5.843999862670898,-22.18000030517578 C-5.843999862670898,-22.18000030517578 1.3049999475479126,22.18000030517578 1.3049999475479126,22.18000030517578 C1.3049999475479126,22.18000030517578 5.843999862670898,-20.368000030517578 5.843999862670898,-20.368000030517578z"></path>
          </g>
        </g>
      </g>
    </g>
    <g style="display: block;" transform="matrix(1,0,0,1,22.815998077392578,3.9620018005371094)"
      opacity="1">
      <g opacity="1" transform="matrix(1,0,0,1,0,0)">
        <g opacity="1" transform="matrix(1,0,0,1,0.5,0.5)">
          <path fill="rgb(154,159,169)" fill-opacity="1" d="M0 0"></path>
        </g>
        <g opacity="1" transform="matrix(1,0,0,1,8.105999946594238,33.41999816894531)">
          <path fill="rgb(204,207,211)" fill-opacity="1"
            d=" M-7.855999946594238,-24.479999542236328 C-7.855999946594238,-24.479999542236328 -2.5950000286102295,26.488000869750977 -2.5950000286102295,26.488000869750977 C-2.5950000286102295,26.488000869750977 7.855999946594238,-26.488000869750977 7.855999946594238,-26.488000869750977 C7.855999946594238,-26.488000869750977 -7.855999946594238,-24.479999542236328 -7.855999946594238,-24.479999542236328z"></path>
        </g>
        <g opacity="1" transform="matrix(1,0,0,1,78.39199829101562,84.78900146484375)">
          <path fill="rgb(204,207,211)" fill-opacity="1"
            d=" M8.204999923706055,29.138999938964844 C8.204999923706055,29.138999938964844 -1.531000018119812,-31.28700065612793 -1.531000018119812,-31.28700065612793 C-1.531000018119812,-31.28700065612793 -8.204999923706055,31.28700065612793 -8.204999923706055,31.28700065612793 C-8.204999923706055,31.28700065612793 8.204999923706055,29.138999938964844 8.204999923706055,29.138999938964844z"></path>
        </g>
        <g opacity="1" transform="matrix(1,0,0,1,40.465999603271484,117.16000366210938)">
          <path fill="rgb(204,207,211)" fill-opacity="1"
            d=" M-28.37299919128418,6.5229997634887695 C-28.37299919128418,6.5229997634887695 29.719999313354492,-1.0829999446868896 29.719999313354492,-1.0829999446868896 C29.719999313354492,-1.0829999446868896 -29.719999313354492,-6.5229997634887695 -29.719999313354492,-6.5229997634887695 C-29.719999313354492,-6.5229997634887695 -28.37299919128418,6.5229997634887695 -28.37299919128418,6.5229997634887695z"></path>
        </g>
        <g opacity="1" transform="matrix(1,0,0,1,53.66699981689453,4.696000099182129)">
          <path fill="rgb(204,207,211)" fill-opacity="1"
            d=" M14.61299991607666,-4.446000099182129 C14.61299991607666,-4.446000099182129 -16.04599952697754,-0.5299999713897705 -16.04599952697754,-0.5299999713897705 C-16.04599952697754,-0.5299999713897705 16.04599952697754,4.446000099182129 16.04599952697754,4.446000099182129 C16.04599952697754,4.446000099182129 14.61299991607666,-4.446000099182129 14.61299991607666,-4.446000099182129z"></path>
        </g>
      </g>
    </g>
    <g style="display: block;"
      transform="matrix(0.999981164932251,0.006127286236733198,-0.006127286236733198,0.999981164932251,48.14036178588867,33.34185028076172)"
      opacity="1">
      <g opacity="1" transform="matrix(1,0,0,1,7.188000202178955,13.704000473022461)">
        <path fill="rgb(115,82,131)" fill-opacity="1"
          d=" M-5.692999839782715,-0.8029999732971191 C-5.692999839782715,-0.8029999732971191 3.436000108718872,3.9539999961853027 3.436000108718872,3.9539999961853027 C3.436000108718872,3.9539999961853027 5.692999839782715,3.244999885559082 5.692999839782715,3.244999885559082 C5.692999839782715,3.244999885559082 11.526000022888184,-5.14900016784668 11.526000022888184,-5.14900016784668 C11.526000022888184,-5.14900016784668 4.421000003814697,-3.9539999961853027 4.421000003814697,-3.9539999961853027 C4.421000003814697,-3.9539999961853027 -5.692999839782715,-0.8029999732971191 -5.692999839782715,-0.8029999732971191z"></path>
      </g>
      <g opacity="1" transform="matrix(1,0,0,1,11.565999984741211,6.071000099182129)">
        <path fill="rgb(183,159,194)" fill-opacity="1"
          d=" M2.3889999389648438,-5.821000099182129 C2.3889999389648438,-5.821000099182129 -3.3440001010894775,1.8769999742507935 -3.3440001010894775,1.8769999742507935 C-3.3440001010894775,1.8769999742507935 -3.3440001010894775,3.680000066757202 -3.3440001010894775,3.680000066757202 C-3.3440001010894775,3.680000066757202 0.041999999433755875,5.821000099182129 0.041999999433755875,5.821000099182129 C0.041999999433755875,5.821000099182129 3.3440001010894775,3.265000104904175 3.3440001010894775,3.265000104904175 C3.3440001010894775,3.265000104904175 2.3889999389648438,-5.821000099182129 2.3889999389648438,-5.821000099182129z"></path>
      </g>
      <g opacity="1" transform="matrix(1,0,0,1,5.928999900817871,9.779999732971191)">
        <path fill="rgb(159,128,173)" fill-opacity="1"
          d=" M2.2920000553131104,-1.8329999446868896 C2.2920000553131104,-1.8329999446868896 -5.679999828338623,-3.121000051498413 -5.679999828338623,-3.121000051498413 C-5.679999828338623,-3.121000051498413 -4.434000015258789,3.121000051498413 -4.434000015258789,3.121000051498413 C-4.434000015258789,3.121000051498413 5.679999828338623,2.109999895095825 5.679999828338623,2.109999895095825 C5.679999828338623,2.109999895095825 2.2920000553131104,-1.8329999446868896 2.2920000553131104,-1.8329999446868896z"></path>
      </g>
    </g>
    <g style="display: block;"
      transform="matrix(0.999981164932251,0.006127286236733198,-0.006127286236733198,0.999981164932251,27.175518035888672,11.708988189697266)"
      opacity="1">
      <g opacity="1" transform="matrix(1,0,0,1,5.14300012588501,12.468000411987305)">
        <path fill="rgb(179,135,157)" fill-opacity="1"
          d=" M4.869410514831543,-4.799155235290527 C4.869410514831543,-4.799155235290527 -4.886938095092773,-1.5716851949691772 -4.886938095092773,-1.5716851949691772 C-4.886938095092773,-1.5716851949691772 2.9883453845977783,4.776223182678223 2.9883453845977783,4.776223182678223 C2.9883453845977783,4.776223182678223 4.748871803283691,-0.007163530681282282 4.748871803283691,-0.007163530681282282 C4.748871803283691,-0.007163530681282282 4.869410514831543,-4.799155235290527 4.869410514831543,-4.799155235290527z"></path>
      </g>
      <g opacity="1" transform="matrix(1,0,0,1,11.348999977111816,10.543000221252441)">
        <path fill="rgb(209,160,184)" fill-opacity="1"
          d=" M2.588620901107788,-6.681660175323486 C2.588620901107788,-6.681660175323486 -1.3376846313476562,-2.8729305267333984 -1.3376846313476562,-2.8729305267333984 C-1.3376846313476562,-2.8729305267333984 -3.2182912826538086,6.702404499053955 -3.2182912826538086,6.702404499053955 C-3.2182912826538086,6.702404499053955 1.5871258974075317,5.208253383636475 1.5871258974075317,5.208253383636475 C1.5871258974075317,5.208253383636475 3.212125778198242,0.5872534513473511 3.212125778198242,0.5872534513473511 C3.212125778198242,0.5872534513473511 2.588620901107788,-6.681660175323486 2.588620901107788,-6.681660175323486z"></path>
      </g>
      <g opacity="1" transform="matrix(1,0,0,1,23.16699981689453,26.743999481201172)">
        <path fill="rgb(149,98,123)" fill-opacity="1"
          d=" M0.012000000104308128,-1.649999976158142 C0.012000000104308128,-1.649999976158142 1.3179999589920044,-1.2059999704360962 1.3179999589920044,-1.2059999704360962 C1.3179999589920044,-1.2059999704360962 0.9380000233650208,1.062000036239624 0.9380000233650208,1.062000036239624 C0.9380000233650208,1.062000036239624 -0.3959999978542328,1.649999976158142 -0.3959999978542328,1.649999976158142 C-0.3959999978542328,1.649999976158142 -1.3179999589920044,-0.11299999803304672 -1.3179999589920044,-0.11299999803304672 C-1.3179999589920044,-0.11299999803304672 0.012000000104308128,-1.649999976158142 0.012000000104308128,-1.649999976158142z"></path>
      </g>
      <g opacity="1" transform="matrix(1,0,0,1,20.75,37.93899917602539)">
        <path fill="rgb(120,126,141)" fill-opacity="1"
          d=" M1.7920000553131104,37.68899917602539 C1.7920000553131104,37.68899917602539 -1.5210000276565552,-22.517000198364258 -1.5210000276565552,-22.517000198364258 C-1.5210000276565552,-22.517000198364258 -4.1020002365112305,-28.242000579833984 -4.1020002365112305,-28.242000579833984 C-4.1020002365112305,-28.242000579833984 -2.194999933242798,-34.75899887084961 -2.194999933242798,-34.75899887084961 C-2.194999933242798,-34.75899887084961 -2.3480000495910645,-37.5620002746582 -2.3480000495910645,-37.5620002746582 C-2.3480000495910645,-37.5620002746582 -0.03799999877810478,-37.68899917602539 -0.03799999877810478,-37.68899917602539 C-0.03799999877810478,-37.68899917602539 0.10499999672174454,-35.08300018310547 0.10499999672174454,-35.08300018310547 C0.10499999672174454,-35.08300018310547 -0.4880000054836273,-34.01900100708008 -0.4880000054836273,-34.01900100708008 C-0.4880000054836273,-34.01900100708008 0.20200000703334808,-33.34400177001953 0.20200000703334808,-33.34400177001953 C0.20200000703334808,-33.34400177001953 0.6880000233650208,-24.513999938964844 0.6880000233650208,-24.513999938964844 C0.6880000233650208,-24.513999938964844 0.0010000000474974513,-23.60300064086914 0.0010000000474974513,-23.60300064086914 C0.0010000000474974513,-23.60300064086914 0.7919999957084656,-22.62700080871582 0.7919999957084656,-22.62700080871582 C0.7919999957084656,-22.62700080871582 4.1020002365112305,37.54600143432617 4.1020002365112305,37.54600143432617 C4.1020002365112305,37.54600143432617 1.7920000553131104,37.68899917602539 1.7920000553131104,37.68899917602539z"></path>
      </g>
      <g opacity="1" transform="matrix(1,0,0,1,18.64299964904785,28.533000946044922)">
        <path fill="rgb(209,160,184)" fill-opacity="1"
          d=" M1.0529999732971191,-4.622000217437744 C1.0529999732971191,-4.622000217437744 -1.99399995803833,-1.5210000276565552 -1.99399995803833,-1.5210000276565552 C-1.99399995803833,-1.5210000276565552 1.5609999895095825,4.622000217437744 1.5609999895095825,4.622000217437744 C1.5609999895095825,4.622000217437744 1.99399995803833,0.3400000035762787 1.99399995803833,0.3400000035762787 C1.99399995803833,0.3400000035762787 1.0529999732971191,-4.622000217437744 1.0529999732971191,-4.622000217437744z"></path>
      </g>
      <g opacity="1" transform="matrix(1,0,0,1,21.437000274658203,28.533000946044922)">
        <path fill="rgb(179,135,157)" fill-opacity="1"
          d=" M-1.7410000562667847,-4.622000217437744 C-1.7410000562667847,-4.622000217437744 1.7410000562667847,-3.437999963760376 1.7410000562667847,-3.437999963760376 C1.7410000562667847,-3.437999963760376 0.9810000061988831,2.7209999561309814 0.9810000061988831,2.7209999561309814 C0.9810000061988831,2.7209999561309814 -1.2330000400543213,4.622000217437744 -1.2330000400543213,4.622000217437744 C-1.2330000400543213,4.622000217437744 -1.7410000562667847,-4.622000217437744 -1.7410000562667847,-4.622000217437744z"></path>
      </g>
      <g opacity="1" transform="matrix(1,0,0,1,17.232999801635742,9.288999557495117)">
        <path fill="rgb(149,98,123)" fill-opacity="1"
          d=" M3.621999979019165,-6.433000087738037 C3.621999979019165,-6.433000087738037 1.734780192375183,-6.166403293609619 1.734780192375183,-6.166403293609619 C1.734780192375183,-6.166403293609619 -3.29577374458313,-5.427184581756592 -3.29577374458313,-5.427184581756592 C-3.29577374458313,-5.427184581756592 -4.29741907119751,6.462314128875732 -4.29741907119751,6.462314128875732 C-4.29741907119751,6.462314128875732 2.8381428718566895,6.093328475952148 2.8381428718566895,6.093328475952148 C2.8381428718566895,6.093328475952148 4.307000160217285,6.02400016784668 4.307000160217285,6.02400016784668 C4.307000160217285,6.02400016784668 4.203999996185303,4.136000156402588 4.203999996185303,4.136000156402588 C4.203999996185303,4.136000156402588 1.8930000066757202,4.25 1.8930000066757202,4.25 C1.8930000066757202,4.25 1.4129999876022339,-4.449999809265137 1.4129999876022339,-4.449999809265137 C1.4129999876022339,-4.449999809265137 3.7190001010894775,-4.692999839782715 3.7190001010894775,-4.692999839782715 C3.7190001010894775,-4.692999839782715 3.621999979019165,-6.433000087738037 3.621999979019165,-6.433000087738037z"></path>
      </g>
    </g>
    <g style="display: block;" transform="matrix(1,0,0,1,51.625999450683594,62.26100540161133)"
      opacity="1">
      <g opacity="0.2" transform="matrix(1,0,0,1,18.426000595092773,26.326000213623047)">
        <path fill="rgb(29,35,49)" fill-opacity="1"
          d=" M-18.09000015258789,0.37700000405311584 C-18.09000015258789,0.37700000405311584 -6.251999855041504,3.9800000190734863 -6.251999855041504,3.9800000190734863 C-6.251999855041504,3.9800000190734863 3.8889999389648438,1.9500000476837158 3.8889999389648438,1.9500000476837158 C3.8889999389648438,1.9500000476837158 7.802000045776367,0.20999999344348907 7.802000045776367,0.20999999344348907 C7.802000045776367,0.20999999344348907 11.911999702453613,1.4869999885559082 11.911999702453613,1.4869999885559082 C11.911999702453613,1.4869999885559082 18.09000015258789,-0.7059999704360962 18.09000015258789,-0.7059999704360962 C18.09000015258789,-0.7059999704360962 9.175000190734863,-3.9800000190734863 9.175000190734863,-3.9800000190734863 C9.175000190734863,-3.9800000190734863 -0.6919999718666077,-2.25600004196167 -0.6919999718666077,-2.25600004196167 C-0.6919999718666077,-2.25600004196167 -8.295000076293945,-1.7879999876022339 -8.295000076293945,-1.7879999876022339 C-8.295000076293945,-1.7879999876022339 -18.09000015258789,0.37700000405311584 -18.09000015258789,0.37700000405311584z"></path>
      </g>
      <g opacity="1" transform="matrix(1,0,-0.00030257910839281976,1,0.008007049560546875,0)">
        <g opacity="1" transform="matrix(1,0,0,1,11.265000343322754,8.347999572753906)">
          <path fill="rgb(129,92,146)" fill-opacity="1"
            d=" M-4.566999912261963,-6.520999908447266 C-4.566999912261963,-6.520999908447266 -3.0850000381469727,5.61299991607666 -3.0850000381469727,5.61299991607666 C-3.0850000381469727,5.61299991607666 1.0130000114440918,8.097999572753906 1.0130000114440918,8.097999572753906 C1.0130000114440918,8.097999572753906 4.566999912261963,-0.6299999952316284 4.566999912261963,-0.6299999952316284 C4.566999912261963,-0.6299999952316284 -0.026000000536441803,-8.097999572753906 -0.026000000536441803,-8.097999572753906 C-0.026000000536441803,-8.097999572753906 -4.566999912261963,-6.520999908447266 -4.566999912261963,-6.520999908447266z"></path>
        </g>
        <g opacity="1" transform="matrix(1,0,0,1,22.74799919128418,12.41100025177002)">
          <path fill="rgb(129,92,146)" fill-opacity="1"
            d=" M-4.310999870300293,-5.295000076293945 C-4.310999870300293,-5.295000076293945 -2.5199999809265137,5.098999977111816 -2.5199999809265137,5.098999977111816 C-2.5199999809265137,5.098999977111816 1.1670000553131104,8.732999801635742 1.1670000553131104,8.732999801635742 C1.1670000553131104,8.732999801635742 4.310999870300293,3.2230000495910645 4.310999870300293,3.2230000495910645 C4.310999870300293,3.2230000495910645 3.4790000915527344,-7.090000152587891 3.4790000915527344,-7.090000152587891 C3.4790000915527344,-7.090000152587891 -0.5479999780654907,-8.732999801635742 -0.5479999780654907,-8.732999801635742 C-0.5479999780654907,-8.732999801635742 -4.310999870300293,-5.295000076293945 -4.310999870300293,-5.295000076293945z"></path>
        </g>
        <g opacity="1" transform="matrix(1,0,0,1,21.02899932861328,10.593999862670898)">
          <path fill="rgb(159,128,173)" fill-opacity="1"
            d=" M5.197999954223633,-5.2729997634887695 C5.197999954223633,-5.2729997634887695 -0.8009999990463257,6.914999961853027 -0.8009999990463257,6.914999961853027 C-0.8009999990463257,6.914999961853027 -5.197999954223633,-2.875999927520752 -5.197999954223633,-2.875999927520752 C-5.197999954223633,-2.875999927520752 0,-6.914999961853027 0,-6.914999961853027 C0,-6.914999961853027 5.197999954223633,-5.2729997634887695 5.197999954223633,-5.2729997634887695z"></path>
        </g>
        <g opacity="1" transform="matrix(1,0,0,1,23.913999557495117,18.989999771118164)">
          <path fill="rgb(83,92,108)" fill-opacity="1"
            d=" M3.1440000534057617,-3.3559999465942383 C3.1440000534057617,-3.3559999465942383 -3.686000108718872,-1.4800000190734863 -3.686000108718872,-1.4800000190734863 C-3.686000108718872,-1.4800000190734863 -0.8960000276565552,2.8889999389648438 -0.8960000276565552,2.8889999389648438 C-0.8960000276565552,2.8889999389648438 3.686000108718872,3.3559999465942383 3.686000108718872,3.3559999465942383 C3.686000108718872,3.3559999465942383 3.1440000534057617,-3.3559999465942383 3.1440000534057617,-3.3559999465942383z"></path>
        </g>
        <g opacity="1" transform="matrix(1,0,0,1,23.913999557495117,20.72800064086914)">
          <path fill="rgb(64,71,86)" fill-opacity="1"
            d=" M-3.686000108718872,-3.2190001010894775 C-3.686000108718872,-3.2190001010894775 3.686000108718872,1.6180000305175781 3.686000108718872,1.6180000305175781 C3.686000108718872,1.6180000305175781 1.1369999647140503,3.2190001010894775 1.1369999647140503,3.2190001010894775 C1.1369999647140503,3.2190001010894775 -1.1360000371932983,2.4600000381469727 -1.1360000371932983,2.4600000381469727 C-1.1360000371932983,2.4600000381469727 -3.686000108718872,-3.2190001010894775 -3.686000108718872,-3.2190001010894775z"></path>
        </g>
        <g opacity="1" transform="matrix(1,0,0,1,8.970000267028809,9.13599967956543)">
          <path fill="rgb(159,128,173)" fill-opacity="1"
            d=" M-2.2709999084472656,-7.309000015258789 C-2.2709999084472656,-7.309000015258789 3.309000015258789,7.309000015258789 3.309000015258789,7.309000015258789 C3.309000015258789,7.309000015258789 -0.2290000021457672,7.129000186920166 -0.2290000021457672,7.129000186920166 C-0.2290000021457672,7.129000186920166 -3.309000015258789,5.5329999923706055 -3.309000015258789,5.5329999923706055 C-3.309000015258789,5.5329999923706055 -2.2709999084472656,-7.309000015258789 -2.2709999084472656,-7.309000015258789z"></path>
        </g>
        <g opacity="1" transform="matrix(1,0,0,1,8.739999771118164,17.63800048828125)">
          <path fill="rgb(83,92,108)" fill-opacity="1"
            d=" M-3.0789999961853027,-2.9690001010894775 C-3.0789999961853027,-2.9690001010894775 3.5369999408721924,-1.1929999589920044 3.5369999408721924,-1.1929999589920044 C3.5369999408721924,-1.1929999589920044 1.0950000286102295,2.9690001010894775 1.0950000286102295,2.9690001010894775 C1.0950000286102295,2.9690001010894775 -3.5369999408721924,2.697000026702881 -3.5369999408721924,2.697000026702881 C-3.5369999408721924,2.697000026702881 -3.0789999961853027,-2.9690001010894775 -3.0789999961853027,-2.9690001010894775z"></path>
        </g>
        <g opacity="1" transform="matrix(1,0,0,1,8.741000175476074,19.261999130249023)">
          <path fill="rgb(64,71,86)" fill-opacity="1"
            d=" M3.5369999408721924,-2.815999984741211 C3.5369999408721924,-2.815999984741211 -3.5369999408721924,1.0740000009536743 -3.5369999408721924,1.0740000009536743 C-3.5369999408721924,1.0740000009536743 -2.0429999828338623,2.815999984741211 -2.0429999828338623,2.815999984741211 C-2.0429999828338623,2.815999984741211 1.378000020980835,2.4839999675750732 1.378000020980835,2.4839999675750732 C1.378000020980835,2.4839999675750732 3.5369999408721924,-2.815999984741211 3.5369999408721924,-2.815999984741211z"></path>
        </g>
        <g opacity="1" transform="matrix(1,0,0,1,5.190000057220459,22.902000427246094)">
          <path fill="rgb(104,111,126)" fill-opacity="1"
            d=" M0.014000000432133675,-2.566999912261963 C0.014000000432133675,-2.566999912261963 -4.940999984741211,2.244999885559082 -4.940999984741211,2.244999885559082 C-4.940999984741211,2.244999885559082 -0.3569999933242798,2.566999912261963 -0.3569999933242798,2.566999912261963 C-0.3569999933242798,2.566999912261963 4.940999984741211,1.6360000371932983 4.940999984741211,1.6360000371932983 C4.940999984741211,1.6360000371932983 4.927999973297119,-1.156000018119812 4.927999973297119,-1.156000018119812 C4.927999973297119,-1.156000018119812 0.014000000432133675,-2.566999912261963 0.014000000432133675,-2.566999912261963z"></path>
        </g>
        <g opacity="1" transform="matrix(1,0,0,1,5.195000171661377,25.621000289916992)">
          <path fill="rgb(83,92,108)" fill-opacity="1"
            d=" M-4.859000205993652,1.0829999446868896 C-4.859000205993652,1.0829999446868896 4.945000171661377,0.6690000295639038 4.945000171661377,0.6690000295639038 C4.945000171661377,0.6690000295639038 4.935999870300293,-1.0829999446868896 4.935999870300293,-1.0829999446868896 C4.935999870300293,-1.0829999446868896 -4.945000171661377,-0.4749999940395355 -4.945000171661377,-0.4749999940395355 C-4.945000171661377,-0.4749999940395355 -4.859000205993652,1.0829999446868896 -4.859000205993652,1.0829999446868896z"></path>
        </g>
        <g opacity="1" transform="matrix(1,0,0,1,26.32699966430664,24.753999710083008)">
          <path fill="rgb(104,111,126)" fill-opacity="1"
            d=" M-3.5490000247955322,-1.565999984741211 C-3.5490000247955322,-1.565999984741211 -4.126999855041504,1.6929999589920044 -4.126999855041504,1.6929999589920044 C-4.126999855041504,1.6929999589920044 0,2.4089999198913574 0,2.4089999198913574 C0,2.4089999198913574 4.126999855041504,1.2940000295639038 4.126999855041504,1.2940000295639038 C4.126999855041504,1.2940000295639038 1.2730000019073486,-2.4089999198913574 1.2730000019073486,-2.4089999198913574 C1.2730000019073486,-2.4089999198913574 -3.5490000247955322,-1.565999984741211 -3.5490000247955322,-1.565999984741211z"></path>
        </g>
        <g opacity="1" transform="matrix(1,0,0,1,26.32699966430664,27.16200065612793)">
          <path fill="rgb(83,92,108)" fill-opacity="1"
            d=" M-4.126999855041504,-0.7160000205039978 C-4.126999855041504,-0.7160000205039978 -4.01200008392334,1.1139999628067017 -4.01200008392334,1.1139999628067017 C-4.01200008392334,1.1139999628067017 4.011000156402588,0.6510000228881836 4.011000156402588,0.6510000228881836 C4.011000156402588,0.6510000228881836 4.126999855041504,-1.1139999628067017 4.126999855041504,-1.1139999628067017 C4.126999855041504,-1.1139999628067017 -4.126999855041504,-0.7160000205039978 -4.126999855041504,-0.7160000205039978z"></path>
        </g>
      </g>
    </g>
    <g style="display: block;"
      transform="matrix(0.9999999403953552,0.00030257910839281976,-0.00030257910839281976,0.9999999403953552,56.46845626831055,33.42491912841797)"
      opacity="1">
      <g opacity="1" transform="matrix(1,0,0,1,8.444000244140625,10.501999855041504)">
        <path fill="rgb(159,128,173)" fill-opacity="1"
          d=" M-2.819999933242798,-10.251999855041504 C-2.819999933242798,-10.251999855041504 5.166999816894531,-6.813000202178955 5.166999816894531,-6.813000202178955 C5.166999816894531,-6.813000202178955 3.86299991607666,10.251999855041504 3.86299991607666,10.251999855041504 C3.86299991607666,10.251999855041504 -5.166999816894531,1.3890000581741333 -5.166999816894531,1.3890000581741333 C-5.166999816894531,1.3890000581741333 -2.819999933242798,-10.251999855041504 -2.819999933242798,-10.251999855041504z"></path>
      </g>
      <g opacity="1" transform="matrix(1,0,0,1,6.931000232696533,20.753999710083008)">
        <path fill="rgb(142,105,159)" fill-opacity="1"
          d=" M-3.6540000438690186,-8.86400032043457 C-3.6540000438690186,-8.86400032043457 -4.638999938964844,-3.0959999561309814 -4.638999938964844,-3.0959999561309814 C-4.638999938964844,-3.0959999561309814 -4.1539998054504395,-2.1740000247955322 -4.1539998054504395,-2.1740000247955322 C-4.1539998054504395,-2.1740000247955322 -5.0320000648498535,-0.7879999876022339 -5.0320000648498535,-0.7879999876022339 C-5.0320000648498535,-0.7879999876022339 -5.97599983215332,4.736000061035156 -5.97599983215332,4.736000061035156 C-5.97599983215332,4.736000061035156 -1.5839999914169312,8.86400032043457 -1.5839999914169312,8.86400032043457 C-1.5839999914169312,8.86400032043457 3.8380000591278076,8.86400032043457 3.8380000591278076,8.86400032043457 C3.8380000591278076,8.86400032043457 5.97599983215332,-0.0010000000474974513 5.97599983215332,-0.0010000000474974513 C5.97599983215332,-0.0010000000474974513 3.3919999599456787,-4.310999870300293 3.3919999599456787,-4.310999870300293 C3.3919999599456787,-4.310999870300293 -3.6540000438690186,-8.86400032043457 -3.6540000438690186,-8.86400032043457z"></path>
      </g>
      <g opacity="1" transform="matrix(1,0,0,1,18.05299949645996,9.335000038146973)">
        <path fill="rgb(129,92,146)" fill-opacity="1"
          d=" M-5.145999908447266,-4.093999862670898 C-5.145999908447266,-4.093999862670898 6.6519999504089355,-10.70199966430664 6.6519999504089355,-10.70199966430664 C6.6519999504089355,-10.70199966430664 7.730000019073486,-7.109000205993652 7.730000019073486,-7.109000205993652 C7.730000019073486,-7.109000205993652 7.730000019073486,-2.809000015258789 7.730000019073486,-2.809000015258789 C7.730000019073486,-2.809000015258789 5.426000118255615,0.9779999852180481 5.426000118255615,0.9779999852180481 C5.426000118255615,0.9779999852180481 -1.3760000467300415,7.109000205993652 -1.3760000467300415,7.109000205993652 C-1.3760000467300415,7.109000205993652 -7.730000019073486,7.109000205993652 -7.730000019073486,7.109000205993652 C-7.730000019073486,7.109000205993652 -5.145999908447266,-4.093999862670898 -5.145999908447266,-4.093999862670898z"></path>
      </g>
      <g opacity="1" transform="matrix(1,0,0,1,17.76300048828125,20.1200008392334)">
        <path fill="rgb(115,82,131)" fill-opacity="1"
          d=" M-7.440000057220459,-3.677000045776367 C-7.440000057220459,-3.677000045776367 5.716000080108643,-9.807000160217285 5.716000080108643,-9.807000160217285 C5.716000080108643,-9.807000160217285 7.440000057220459,-5.341000080108643 7.440000057220459,-5.341000080108643 C7.440000057220459,-5.341000080108643 5.135000228881836,3.561000108718872 5.135000228881836,3.561000108718872 C5.135000228881836,3.561000108718872 6.064000129699707,6.455999851226807 6.064000129699707,6.455999851226807 C6.064000129699707,6.455999851226807 -0.38999998569488525,9.807000160217285 -0.38999998569488525,9.807000160217285 C-0.38999998569488525,9.807000160217285 -6.99399995803833,9.496999740600586 -6.99399995803833,9.496999740600586 C-6.99399995803833,9.496999740600586 -7.440000057220459,-3.677000045776367 -7.440000057220459,-3.677000045776367z"></path>
      </g>
      <g opacity="1" transform="matrix(1,0,0,1,27.4950008392334,10.618000030517578)">
        <path fill="rgb(159,128,173)" fill-opacity="1"
          d=" M-1.6330000162124634,-5.171000003814697 C-1.6330000162124634,-5.171000003814697 0.7490000128746033,-2.565999984741211 0.7490000128746033,-2.565999984741211 C0.7490000128746033,-2.565999984741211 4.015999794006348,5.171000003814697 4.015999794006348,5.171000003814697 C4.015999794006348,5.171000003814697 -1.184000015258789,4.934999942779541 -1.184000015258789,4.934999942779541 C-1.184000015258789,4.934999942779541 -3.9260001182556152,3.9000000953674316 -3.9260001182556152,3.9000000953674316 C-3.9260001182556152,3.9000000953674316 -4.015999794006348,-0.3050000071525574 -4.015999794006348,-0.3050000071525574 C-4.015999794006348,-0.3050000071525574 -1.6330000162124634,-5.171000003814697 -1.6330000162124634,-5.171000003814697z"></path>
      </g>
      <g opacity="1" transform="matrix(1,0,0,1,25.861000061035156,6.269999980926514)">
        <path fill="rgb(183,159,194)" fill-opacity="1"
          d=" M-2.382999897003174,4.043000221252441 C-2.382999897003174,4.043000221252441 2.382999897003174,1.781999945640564 2.382999897003174,1.781999945640564 C2.382999897003174,1.781999945640564 -0.07800000160932541,-4.043000221252441 -0.07800000160932541,-4.043000221252441 C-0.07800000160932541,-4.043000221252441 -2.382999897003174,4.043000221252441 -2.382999897003174,4.043000221252441z"></path>
      </g>
      <g opacity="1" transform="matrix(1,0,0,1,25.202999114990234,19.736000061035156)">
        <path fill="rgb(159,128,173)" fill-opacity="1"
          d=" M-1.3760000467300415,-3.947000026702881 C-1.3760000467300415,-3.947000026702881 -6.309000015258789,-0.3569999933242798 -6.309000015258789,-0.3569999933242798 C-6.309000015258789,-0.3569999933242798 -5.210999965667725,2.196000099182129 -5.210999965667725,2.196000099182129 C-5.210999965667725,2.196000099182129 -1.4390000104904175,3.947000026702881 -1.4390000104904175,3.947000026702881 C-1.4390000104904175,3.947000026702881 6.309000015258789,-3.947000026702881 6.309000015258789,-3.947000026702881 C6.309000015258789,-3.947000026702881 -1.3760000467300415,-3.947000026702881 -1.3760000467300415,-3.947000026702881z"></path>
      </g>
      <g opacity="1" transform="matrix(1,0,0,1,25.202999114990234,16.947999954223633)">
        <path fill="rgb(183,159,194)" fill-opacity="1"
          d=" M-1.6339999437332153,-2.430000066757202 C-1.6339999437332153,-2.430000066757202 6.308000087738037,-1.159999966621399 6.308000087738037,-1.159999966621399 C6.308000087738037,-1.159999966621399 -6.308000087738037,2.430000066757202 -6.308000087738037,2.430000066757202 C-6.308000087738037,2.430000066757202 -1.6339999437332153,-2.430000066757202 -1.6339999437332153,-2.430000066757202z"></path>
      </g>
      <g opacity="1" transform="matrix(1,0,0,1,4.427999973297119,17.87700080871582)">
        <path fill="rgb(154,159,169)" fill-opacity="1"
          d=" M-2.135999917984009,-0.21899999678134918 C-2.135999917984009,-0.21899999678134918 1.7319999933242798,-2.0889999866485596 1.7319999933242798,-2.0889999866485596 C1.7319999933242798,-2.0889999866485596 2.5299999713897705,-0.4050000011920929 2.5299999713897705,-0.4050000011920929 C2.5299999713897705,-0.4050000011920929 -2.5299999713897705,2.0889999866485596 -2.5299999713897705,2.0889999866485596 C-2.5299999713897705,2.0889999866485596 -2.135999917984009,-0.21899999678134918 -2.135999917984009,-0.21899999678134918z"></path>
      </g>
      <g opacity="1" transform="matrix(1,0,0,1,19.485000610351562,21.930999755859375)">
        <path fill="rgb(120,126,141)" fill-opacity="1"
          d=" M4.281000137329102,1.7510000467300415 C4.281000137329102,1.7510000467300415 -2.9590001106262207,-4.645999908447266 -2.9590001106262207,-4.645999908447266 C-2.9590001106262207,-4.645999908447266 -4.3420000076293945,-3.009999990463257 -4.3420000076293945,-3.009999990463257 C-4.3420000076293945,-3.009999990463257 4.3420000076293945,4.645999908447266 4.3420000076293945,4.645999908447266 C4.3420000076293945,4.645999908447266 4.281000137329102,1.7510000467300415 4.281000137329102,1.7510000467300415z"></path>
      </g>
      <g opacity="1" transform="matrix(1,0,0,1,6.410999774932861,31.020999908447266)">
        <path fill="rgb(104,111,126)" fill-opacity="1"
          d=" M4.357999801635742,-1.4040000438690186 C4.357999801635742,-1.4040000438690186 -5.455999851226807,-5.531000137329102 -5.455999851226807,-5.531000137329102 C-5.455999851226807,-5.531000137329102 -6.160999774932861,-1.4040000438690186 -6.160999774932861,-1.4040000438690186 C-6.160999774932861,-1.4040000438690186 4.5929999351501465,5.531000137329102 4.5929999351501465,5.531000137329102 C4.5929999351501465,5.531000137329102 6.160999774932861,1.2120000123977661 6.160999774932861,1.2120000123977661 C6.160999774932861,1.2120000123977661 4.357999801635742,-1.4040000438690186 4.357999801635742,-1.4040000438690186z"></path>
      </g>
      <g opacity="1" transform="matrix(1,0,0,1,17.371999740600586,31.56399917602539)">
        <path fill="rgb(64,71,86)" fill-opacity="1"
          d=" M6.454999923706055,-4.98799991607666 C6.454999923706055,-4.98799991607666 6.604000091552734,1.9989999532699585 6.604000091552734,1.9989999532699585 C6.604000091552734,1.9989999532699585 -6.368000030517578,4.98799991607666 -6.368000030517578,4.98799991607666 C-6.368000030517578,4.98799991607666 -6.604000091552734,-1.9470000267028809 -6.604000091552734,-1.9470000267028809 C-6.604000091552734,-1.9470000267028809 6.454999923706055,-4.98799991607666 6.454999923706055,-4.98799991607666z"></path>
      </g>
    </g>
    <g style="display: block;"
      transform="matrix(0.9999999403953552,-0.00015128955419640988,0.00015128955419640988,0.9999999403953552,55.84141159057617,2.1089553833007812)"
      opacity="1">
      <g opacity="1" transform="matrix(1,0,0,1,2.4210000038146973,12.420999526977539)">
        <path fill="rgb(136,144,155)" fill-opacity="1"
          d=" M1.2860000133514404,-2.065999984741211 C1.2860000133514404,-2.065999984741211 -2.1710000038146973,1.1399999856948853 -2.1710000038146973,1.1399999856948853 C-2.1710000038146973,1.1399999856948853 2.1710000038146973,2.065999984741211 2.1710000038146973,2.065999984741211 C2.1710000038146973,2.065999984741211 1.2860000133514404,-2.065999984741211 1.2860000133514404,-2.065999984741211z"></path>
      </g>
      <g opacity="1" transform="matrix(1,0,0,1,2.4200000762939453,15.916999816894531)">
        <path fill="rgb(83,92,108)" fill-opacity="1"
          d=" M-2.1710000038146973,-2.3570001125335693 C-2.1710000038146973,-2.3570001125335693 0.5329999923706055,2.7990000247955322 0.5329999923706055,2.7990000247955322 C0.5329999923706055,2.7990000247955322 2.1710000038146973,-2.7990000247955322 2.1710000038146973,-2.7990000247955322 C2.1710000038146973,-2.7990000247955322 -2.1710000038146973,-2.3570001125335693 -2.1710000038146973,-2.3570001125335693z"></path>
      </g>
      <g opacity="1" transform="matrix(1,0,0,1,22.243999481201172,27.898000717163086)">
        <path fill="rgb(64,71,86)" fill-opacity="1"
          d=" M-2.5869998931884766,3.124000072479248 C-2.5869998931884766,3.124000072479248 2.5869998931884766,2.006999969482422 2.5869998931884766,2.006999969482422 C2.5869998931884766,2.006999969482422 -0.45399999618530273,-3.124000072479248 -0.45399999618530273,-3.124000072479248 C-0.45399999618530273,-3.124000072479248 -2.315999984741211,-1.2640000581741333 -2.315999984741211,-1.2640000581741333 C-2.315999984741211,-1.2640000581741333 -2.5869998931884766,3.124000072479248 -2.5869998931884766,3.124000072479248z"></path>
      </g>
      <g opacity="1" transform="matrix(1,0,0,1,11.036999702453613,30.584999084472656)">
        <path fill="rgb(104,111,126)" fill-opacity="1"
          d=" M3.193000078201294,4.426000118255615 C3.193000078201294,4.426000118255615 -3.193000078201294,-1.1430000066757202 -3.193000078201294,-1.1430000066757202 C-3.193000078201294,-1.1430000066757202 -0.7609999775886536,-4.426000118255615 -0.7609999775886536,-4.426000118255615 C-0.7609999775886536,-4.426000118255615 3.193000078201294,-0.7319999933242798 3.193000078201294,-0.7319999933242798 C3.193000078201294,-0.7319999933242798 3.193000078201294,4.426000118255615 3.193000078201294,4.426000118255615z"></path>
      </g>
      <g opacity="1" transform="matrix(1,0,0,1,26.635000228881836,6.3460001945495605)">
        <path fill="rgb(87,62,99)" fill-opacity="1"
          d=" M-1.0180000066757202,-3.006999969482422 C-1.0180000066757202,-3.006999969482422 2.296624183654785,1.0718743801116943 2.296624183654785,1.0718743801116943 C2.296624183654785,1.0718743801116943 -0.5640000104904175,3.006999969482422 -0.5640000104904175,3.006999969482422 C-0.5640000104904175,3.006999969482422 -2.305000066757202,-0.257999986410141 -2.305000066757202,-0.257999986410141 C-2.305000066757202,-0.257999986410141 -1.0180000066757202,-3.006999969482422 -1.0180000066757202,-3.006999969482422z"></path>
      </g>
      <g opacity="1" transform="matrix(1,0,0,1,22.131999969482422,9.923999786376953)">
        <path fill="rgb(100,71,115)" fill-opacity="1"
          d=" M3.4860000610351562,-6.584000110626221 C3.4860000610351562,-6.584000110626221 4.479000091552734,6.584000110626221 4.479000091552734,6.584000110626221 C4.479000091552734,6.584000110626221 -4.479000091552734,-0.6690000295639038 -4.479000091552734,-0.6690000295639038 C-4.479000091552734,-0.6690000295639038 -3.947000026702881,-3.4690001010894775 -3.947000026702881,-3.4690001010894775 C-3.947000026702881,-3.4690001010894775 3.4860000610351562,-6.584000110626221 3.4860000610351562,-6.584000110626221z"></path>
      </g>
      <g opacity="1" transform="matrix(1,0,0,1,15.111000061035156,4.752999782562256)">
        <path fill="rgb(115,82,131)" fill-opacity="1"
          d=" M-10.506999969482422,1.2710000276565552 C-10.506999969482422,1.2710000276565552 3.0739998817443848,-4.502999782562256 3.0739998817443848,-4.502999782562256 C3.0739998817443848,-4.502999782562256 10.506999969482422,-1.4129999876022339 10.506999969482422,-1.4129999876022339 C10.506999969482422,-1.4129999876022339 4.159999847412109,3.5460000038146973 4.159999847412109,3.5460000038146973 C4.159999847412109,3.5460000038146973 -4.835999965667725,4.502999782562256 -4.835999965667725,4.502999782562256 C-4.835999965667725,4.502999782562256 -10.506999969482422,1.2710000276565552 -10.506999969482422,1.2710000276565552z"></path>
      </g>
      <g opacity="1" transform="matrix(1,0,0,1,15.57699966430664,20.695999145507812)">
        <path fill="rgb(179,135,157)" fill-opacity="1"
          d=" M-6.255000114440918,4.13700008392334 C-6.255000114440918,4.13700008392334 -1.5870000123977661,6.382999897003174 -1.5870000123977661,6.382999897003174 C-1.5870000123977661,6.382999897003174 2.7860000133514404,8.27299976348877 2.7860000133514404,8.27299976348877 C2.7860000133514404,8.27299976348877 4.913000106811523,7.860000133514404 4.913000106811523,7.860000133514404 C4.913000106811523,7.860000133514404 6.255000114440918,6.382999897003174 6.255000114440918,6.382999897003174 C6.255000114440918,6.382999897003174 6.211999893188477,4.077000141143799 6.211999893188477,4.077000141143799 C6.211999893188477,4.077000141143799 4.913000106811523,-6.440999984741211 4.913000106811523,-6.440999984741211 C4.913000106811523,-6.440999984741211 1.7209999561309814,-8.27299976348877 1.7209999561309814,-8.27299976348877 C1.7209999561309814,-8.27299976348877 -6.255000114440918,4.13700008392334 -6.255000114440918,4.13700008392334z"></path>
      </g>
      <g opacity="1" transform="matrix(1,0,0,1,9.085000038146973,18.716999053955078)">
        <path fill="rgb(209,160,184)" fill-opacity="1"
          d=" M-5.377999782562256,-8.362000465393066 C-5.377999782562256,-8.362000465393066 -8.21399974822998,5.2270002365112305 -8.21399974822998,5.2270002365112305 C-8.21399974822998,5.2270002365112305 1.190999984741211,7.441999912261963 1.190999984741211,7.441999912261963 C1.190999984741211,7.441999912261963 4.906000137329102,8.362000465393066 4.906000137329102,8.362000465393066 C4.906000137329102,8.362000465393066 8.21399974822998,-6.294000148773193 8.21399974822998,-6.294000148773193 C8.21399974822998,-6.294000148773193 1.8029999732971191,-8.362000465393066 1.8029999732971191,-8.362000465393066 C1.8029999732971191,-8.362000465393066 -5.377999782562256,-8.362000465393066 -5.377999782562256,-8.362000465393066z"></path>
      </g>
      <g opacity="1" transform="matrix(1,0,0,1,9.449999809265137,17.547000885009766)">
        <path fill="rgb(149,98,123)" fill-opacity="1"
          d=" M-4.076000213623047,-3.369999885559082 C-4.076000213623047,-3.369999885559082 4.076000213623047,-1.9509999752044678 4.076000213623047,-1.9509999752044678 C4.076000213623047,-1.9509999752044678 0.40400001406669617,-1.6519999504089355 0.40400001406669617,-1.6519999504089355 C0.40400001406669617,-1.6519999504089355 -1.4359999895095825,3.369999885559082 -1.4359999895095825,3.369999885559082 C-1.4359999895095825,3.369999885559082 -1.090000033378601,-1.9509999752044678 -1.090000033378601,-1.9509999752044678 C-1.090000033378601,-1.9509999752044678 -4.076000213623047,-3.369999885559082 -4.076000213623047,-3.369999885559082z"></path>
      </g>
      <g opacity="1" transform="matrix(1,0,0,1,14.241999626159668,28.155000686645508)">
        <path fill="rgb(149,98,123)" fill-opacity="1"
          d=" M-3.9660000801086426,-1.996999979019165 C-3.9660000801086426,-1.996999979019165 3.9660000801086426,-0.13199999928474426 3.9660000801086426,-0.13199999928474426 C3.9660000801086426,-0.13199999928474426 1.312999963760376,1.996999979019165 1.312999963760376,1.996999979019165 C1.312999963760376,1.996999979019165 -2.0840001106262207,1.996999979019165 -2.0840001106262207,1.996999979019165 C-2.0840001106262207,1.996999979019165 -3.9660000801086426,-1.996999979019165 -3.9660000801086426,-1.996999979019165z"></path>
      </g>
      <g opacity="1" transform="matrix(1,0,0,1,16.323999404907227,30.785999298095703)">
        <path fill="rgb(115,82,131)" fill-opacity="1"
          d=" M4.165999889373779,-2.2300000190734863 C4.165999889373779,-2.2300000190734863 1.8839999437332153,-2.76200008392334 1.8839999437332153,-2.76200008392334 C1.8839999437332153,-2.76200008392334 -4.165999889373779,-0.6349999904632568 -4.165999889373779,-0.6349999904632568 C-4.165999889373779,-0.6349999904632568 -2.6449999809265137,2.76200008392334 -2.6449999809265137,2.76200008392334 C-2.6449999809265137,2.76200008392334 3.3340001106262207,0.23600000143051147 3.3340001106262207,0.23600000143051147 C3.3340001106262207,0.23600000143051147 4.165999889373779,-2.2300000190734863 4.165999889373779,-2.2300000190734863z"></path>
      </g>
      <g opacity="1" transform="matrix(1,0,0,1,11.520999908447266,9.222999572753906)">
        <path fill="rgb(159,128,173)" fill-opacity="1"
          d=" M-7.814000129699707,1.1319999694824219 C-7.814000129699707,1.1319999694824219 -6.916999816894531,-3.1989998817443848 -6.916999816894531,-3.1989998817443848 C-6.916999816894531,-3.1989998817443848 7.75,-0.9259999990463257 7.75,-0.9259999990463257 C7.75,-0.9259999990463257 7.814000129699707,1.6779999732971191 7.814000129699707,1.6779999732971191 C7.814000129699707,1.6779999732971191 5.7769999504089355,3.1989998817443848 5.7769999504089355,3.1989998817443848 C5.7769999504089355,3.1989998817443848 -7.814000129699707,1.1319999694824219 -7.814000129699707,1.1319999694824219z"></path>
      </g>
      <g opacity="1" transform="matrix(1,0,0,1,22.18600082397461,15.312999725341797)">
        <path fill="rgb(135,96,154)" fill-opacity="1"
          d=" M-4.88700008392334,-2.8910000324249268 C-4.88700008392334,-2.8910000324249268 4.88700008392334,7.015999794006348 4.88700008392334,7.015999794006348 C4.88700008392334,7.015999794006348 3.384999990463257,1.1950000524520874 3.384999990463257,1.1950000524520874 C3.384999990463257,1.1950000524520874 1.0809999704360962,-2.6410000324249268 1.0809999704360962,-2.6410000324249268 C1.0809999704360962,-2.6410000324249268 -2.9149999618530273,-7.015999794006348 -2.9149999618530273,-7.015999794006348 C-2.9149999618530273,-7.015999794006348 -4.88700008392334,-2.8910000324249268 -4.88700008392334,-2.8910000324249268z"></path>
      </g>
      <g opacity="1" transform="matrix(1,0,0,1,21.83300018310547,15.694000244140625)">
        <path fill="rgb(154,159,169)" fill-opacity="1"
          d=" M1.434999942779541,-3.0209999084472656 C1.434999942779541,-3.0209999084472656 -2.496999979019165,-1.2079999446868896 -2.496999979019165,-1.2079999446868896 C-2.496999979019165,-1.2079999446868896 2.496999979019165,3.0209999084472656 2.496999979019165,3.0209999084472656 C2.496999979019165,3.0209999084472656 1.434999942779541,-3.0209999084472656 1.434999942779541,-3.0209999084472656z"></path>
      </g>
      <g opacity="1" transform="matrix(1,0,0,1,21.36400032043457,18.59600067138672)">
        <path fill="rgb(83,92,108)" fill-opacity="1"
          d=" M2.0290000438690186,-1.625 C2.0290000438690186,-1.625 1.4010000228881836,1.0369999408721924 1.4010000228881836,1.0369999408721924 C1.4010000228881836,1.0369999408721924 -1.8489999771118164,4.109000205993652 -1.8489999771118164,4.109000205993652 C-1.8489999771118164,4.109000205993652 -2.0290000438690186,-4.109000205993652 -2.0290000438690186,-4.109000205993652 C-2.0290000438690186,-4.109000205993652 2.0290000438690186,-1.625 2.0290000438690186,-1.625z"></path>
      </g>
      <g opacity="1" transform="matrix(1,0,0,1,25.17099952697754,17.500999450683594)">
        <path fill="rgb(120,126,141)" fill-opacity="1"
          d=" M-1.9040000438690186,-4.828000068664551 C-1.9040000438690186,-4.828000068664551 1.440000057220459,-0.9929999709129333 1.440000057220459,-0.9929999709129333 C1.440000057220459,-0.9929999709129333 1.9040000438690186,4.828000068664551 1.9040000438690186,4.828000068664551 C1.9040000438690186,4.828000068664551 -0.8399999737739563,2.5299999713897705 -0.8399999737739563,2.5299999713897705 C-0.8399999737739563,2.5299999713897705 -1.7769999504089355,-0.5299999713897705 -1.7769999504089355,-0.5299999713897705 C-1.7769999504089355,-0.5299999713897705 -1.9040000438690186,-4.828000068664551 -1.9040000438690186,-4.828000068664551z"></path>
      </g>
      <g opacity="1" transform="matrix(1,0,0,1,23.295000076293945,20.871999740600586)">
        <path fill="rgb(64,71,86)" fill-opacity="1"
          d=" M0.0989999994635582,-3.9019999504089355 C0.0989999994635582,-3.9019999504089355 3.7799999713897705,1.4559999704360962 3.7799999713897705,1.4559999704360962 C3.7799999713897705,1.4559999704360962 -1.50600004196167,3.9019999504089355 -1.50600004196167,3.9019999504089355 C-1.50600004196167,3.9019999504089355 -3.7799999713897705,1.8329999446868896 -3.7799999713897705,1.8329999446868896 C-3.7799999713897705,1.8329999446868896 0.0989999994635582,-3.9019999504089355 0.0989999994635582,-3.9019999504089355z"></path>
      </g>
      <g opacity="1" transform="matrix(1,0,0,1,20.20199966430664,30.667999267578125)">
        <path fill="rgb(104,111,126)" fill-opacity="1"
          d=" M-6.5229997634887695,2.880000114440918 C-6.5229997634887695,2.880000114440918 3.26200008392334,-1.3760000467300415 3.26200008392334,-1.3760000467300415 C3.26200008392334,-1.3760000467300415 0.2879999876022339,-2.11299991607666 0.2879999876022339,-2.11299991607666 C0.2879999876022339,-2.11299991607666 1.5870000123977661,-5.894999980926514 1.5870000123977661,-5.894999980926514 C1.5870000123977661,-5.894999980926514 7.498000144958496,-1.6990000009536743 7.498000144958496,-1.6990000009536743 C7.498000144958496,-1.6990000009536743 3.625999927520752,2.0980000495910645 3.625999927520752,2.0980000495910645 C3.625999927520752,2.0980000495910645 -6.675000190734863,5.894999980926514 -6.675000190734863,5.894999980926514 C-6.675000190734863,5.894999980926514 -7.498000144958496,3.5899999141693115 -7.498000144958496,3.5899999141693115 C-7.498000144958496,3.5899999141693115 -6.5229997634887695,2.880000114440918 -6.5229997634887695,2.880000114440918z"></path>
      </g>
      <g opacity="1" transform="matrix(1,0,0,1,9.961000442504883,33.00299835205078)">
        <path fill="rgb(136,144,155)" fill-opacity="1"
          d=" M-2.117000102996826,-3.561000108718872 C-2.117000102996826,-3.561000108718872 -3.7179999351501465,-1.4299999475479126 -3.7179999351501465,-1.4299999475479126 C-3.7179999351501465,-1.4299999475479126 3.565999984741211,3.561000108718872 3.565999984741211,3.561000108718872 C3.565999984741211,3.561000108718872 3.7179999351501465,0.546999990940094 3.7179999351501465,0.546999990940094 C3.7179999351501465,0.546999990940094 -2.117000102996826,-3.561000108718872 -2.117000102996826,-3.561000108718872z"></path>
      </g>
      <g opacity="1" transform="matrix(1,0,0,1,20.613000869750977,32.76599884033203)">
        <path fill="rgb(64,71,86)" fill-opacity="1"
          d=" M5.790999889373779,0.7829999923706055 C5.790999889373779,0.7829999923706055 7.086999893188477,-3.796999931335449 7.086999893188477,-3.796999931335449 C7.086999893188477,-3.796999931335449 -7.086999893188477,3.796999931335449 -7.086999893188477,3.796999931335449 C-7.086999893188477,3.796999931335449 5.790999889373779,0.7829999923706055 5.790999889373779,0.7829999923706055z"></path>
      </g>
    </g>
  </g>
</svg>
